<mxfile host="app.diagrams.net" modified="2021-10-13T09:50:01.359Z" agent="5.0 (Macintosh; Intel Mac OS X 10_15_7) AppleWebKit/537.36 (KHTML, like Gecko) Chrome/94.0.4606.71 Safari/537.36" etag="2q_50xjfkr_Y7WFKOaZr" version="15.1.4" type="github">
  <diagram id="tpC0G9TIvh7pOY5HOuUN" name="Page-1">
    <mxGraphModel dx="874" dy="589" grid="0" gridSize="10" guides="1" tooltips="1" connect="1" arrows="1" fold="1" page="1" pageScale="1" pageWidth="827" pageHeight="1169" math="0" shadow="0">
      <root>
        <mxCell id="0" />
        <mxCell id="1" parent="0" />
        <mxCell id="4K-yeC07X4enUbnwsxa1-4" style="edgeStyle=orthogonalEdgeStyle;rounded=0;orthogonalLoop=1;jettySize=auto;html=1;entryX=0.1;entryY=0.5;entryDx=0;entryDy=0;entryPerimeter=0;" edge="1" parent="1" source="4K-yeC07X4enUbnwsxa1-1" target="4K-yeC07X4enUbnwsxa1-2">
          <mxGeometry relative="1" as="geometry" />
        </mxCell>
        <mxCell id="4K-yeC07X4enUbnwsxa1-1" value="" style="shape=note;whiteSpace=wrap;html=1;backgroundOutline=1;darkOpacity=0.05;" vertex="1" parent="1">
          <mxGeometry x="42" y="200" width="80" height="100" as="geometry" />
        </mxCell>
        <mxCell id="4K-yeC07X4enUbnwsxa1-2" value="" style="ellipse;shape=cloud;whiteSpace=wrap;html=1;" vertex="1" parent="1">
          <mxGeometry x="234" y="210" width="120" height="80" as="geometry" />
        </mxCell>
      </root>
    </mxGraphModel>
  </diagram>
</mxfile>
